<svg xmlns="http://www.w3.org/2000/svg" viewBox="0 0 64 48" shape-rendering="crispEdges">
  <!-- Sky gradient -->
  <rect x="0" y="0" width="64" height="4" fill="#1a4f9e"/>
  <rect x="0" y="4" width="64" height="4" fill="#2563b8"/>
  <rect x="0" y="8" width="64" height="4" fill="#3578cc"/>
  <rect x="0" y="12" width="64" height="4" fill="#4d8fd8"/>
  <rect x="0" y="16" width="64" height="4" fill="#6ba6e4"/>
  <rect x="0" y="20" width="64" height="2" fill="#88bced"/>
  <!-- Clouds -->
  <rect x="4" y="4" width="10" height="3" fill="#d8e6f5"/>
  <rect x="3" y="5" width="12" height="2" fill="#e4eef9"/>
  <rect x="5" y="3" width="6" height="1" fill="#dde8f6"/>
  <rect x="24" y="7" width="8" height="3" fill="#dae7f5"/>
  <rect x="23" y="8" width="10" height="2" fill="#e6eff9"/>
  <rect x="44" y="3" width="12" height="3" fill="#d6e4f4"/>
  <rect x="43" y="4" width="14" height="2" fill="#e2ecf8"/>
  <rect x="46" y="2" width="7" height="1" fill="#d4e2f3"/>
  <rect x="14" y="14" width="6" height="2" fill="#d2e0f2"/>
  <rect x="52" y="12" width="8" height="2" fill="#d6e4f4"/>
  <!-- Base green -->
  <rect x="0" y="22" width="64" height="26" fill="#52a82e"/>
  <!-- Rolling hills -->
  <!-- Center-right hill -->
  <rect x="20" y="20" width="36" height="2" fill="#60b838"/>
  <rect x="24" y="18" width="28" height="2" fill="#68c040"/>
  <rect x="28" y="16" width="20" height="2" fill="#70c848"/>
  <rect x="32" y="14" width="12" height="2" fill="#78d050"/>
  <!-- Left gentle slope -->
  <rect x="0" y="22" width="24" height="2" fill="#4c9c28"/>
  <rect x="0" y="20" width="18" height="2" fill="#56a832"/>
  <rect x="0" y="18" width="12" height="2" fill="#4e9c2a"/>
  <rect x="0" y="16" width="6" height="2" fill="#469428"/>
  <!-- Far right hill -->
  <rect x="50" y="22" width="14" height="2" fill="#4c9c28"/>
  <rect x="54" y="20" width="10" height="2" fill="#56a832"/>
  <rect x="58" y="18" width="6" height="2" fill="#4e9c2a"/>
  <!-- Darker valleys -->
  <rect x="0" y="26" width="64" height="3" fill="#3c8420"/>
  <rect x="0" y="29" width="64" height="3" fill="#34781a"/>
  <rect x="0" y="32" width="64" height="4" fill="#2e6e16"/>
  <!-- Foreground -->
  <rect x="0" y="36" width="64" height="4" fill="#367a1a"/>
  <rect x="0" y="40" width="64" height="4" fill="#307018"/>
  <rect x="0" y="44" width="64" height="4" fill="#2c6816"/>
  <!-- Grass texture -->
  <rect x="5" y="27" width="1" height="1" fill="#4a9026"/>
  <rect x="16" y="29" width="1" height="1" fill="#4a9026"/>
  <rect x="30" y="26" width="1" height="1" fill="#4a9026"/>
  <rect x="42" y="30" width="1" height="1" fill="#4a9026"/>
  <rect x="55" y="28" width="1" height="1" fill="#4a9026"/>
  <rect x="10" y="34" width="1" height="1" fill="#428822"/>
  <rect x="22" y="36" width="1" height="1" fill="#428822"/>
  <rect x="38" y="33" width="1" height="1" fill="#428822"/>
  <rect x="48" y="38" width="1" height="1" fill="#428822"/>
  <rect x="60" y="35" width="1" height="1" fill="#428822"/>
  <rect x="7" y="41" width="1" height="1" fill="#3c801e"/>
  <rect x="18" y="43" width="1" height="1" fill="#3c801e"/>
  <rect x="33" y="42" width="1" height="1" fill="#3c801e"/>
  <rect x="46" y="44" width="1" height="1" fill="#3c801e"/>
  <rect x="57" y="41" width="1" height="1" fill="#3c801e"/>
  <!-- Hilltop highlights -->
  <rect x="34" y="14" width="8" height="1" fill="#82d454"/>
  <rect x="30" y="16" width="14" height="1" fill="#7cce4e"/>
  <rect x="2" y="16" width="3" height="1" fill="#5eb436"/>
  <rect x="60" y="18" width="3" height="1" fill="#5eb436"/>
</svg>
