<svg xmlns="http://www.w3.org/2000/svg" viewBox="0 0 64 48" shape-rendering="crispEdges">
  <!-- Sky gradient (top to bottom: deeper blue to lighter blue) -->
  <rect x="0" y="0" width="64" height="4" fill="#1e5cb3"/>
  <rect x="0" y="4" width="64" height="4" fill="#2a6cc4"/>
  <rect x="0" y="8" width="64" height="4" fill="#3b80d1"/>
  <rect x="0" y="12" width="64" height="4" fill="#5a9be0"/>
  <rect x="0" y="16" width="64" height="4" fill="#7ab4ea"/>
  <rect x="0" y="20" width="64" height="2" fill="#94c8f0"/>
  <!-- Clouds -->
  <rect x="6" y="6" width="8" height="3" fill="#dceaf8"/>
  <rect x="5" y="7" width="10" height="2" fill="#e8f0fa"/>
  <rect x="7" y="5" width="5" height="1" fill="#e0ecf8"/>
  <rect x="30" y="3" width="12" height="4" fill="#dce8f6"/>
  <rect x="29" y="4" width="14" height="3" fill="#e6eff9"/>
  <rect x="31" y="2" width="8" height="1" fill="#d8e4f4"/>
  <rect x="48" y="8" width="10" height="3" fill="#dde9f7"/>
  <rect x="47" y="9" width="12" height="2" fill="#e4eef8"/>
  <rect x="49" y="7" width="6" height="1" fill="#d8e6f5"/>
  <rect x="18" y="11" width="6" height="2" fill="#d5e4f4"/>
  <rect x="17" y="12" width="8" height="1" fill="#dfebf7"/>
  <!-- Far hills (lighter green, background) -->
  <rect x="0" y="22" width="64" height="26" fill="#5ba033"/>
  <!-- Rolling hill shapes -->
  <!-- Main center hill -->
  <rect x="10" y="20" width="44" height="2" fill="#6ab540"/>
  <rect x="6" y="22" width="52" height="1" fill="#6ab540"/>
  <rect x="14" y="18" width="36" height="2" fill="#72bd48"/>
  <rect x="18" y="16" width="28" height="2" fill="#7ac750"/>
  <rect x="22" y="14" width="20" height="2" fill="#7ac750"/>
  <!-- Left hill -->
  <rect x="0" y="24" width="20" height="2" fill="#4a8f29"/>
  <rect x="0" y="22" width="16" height="2" fill="#54a030"/>
  <rect x="0" y="20" width="10" height="2" fill="#5ba838"/>
  <rect x="0" y="18" width="6" height="2" fill="#4e9a2c"/>
  <!-- Right hill -->
  <rect x="44" y="24" width="20" height="2" fill="#4a8f29"/>
  <rect x="48" y="22" width="16" height="2" fill="#54a030"/>
  <rect x="52" y="20" width="12" height="2" fill="#5ba838"/>
  <rect x="56" y="18" width="8" height="2" fill="#4e9a2c"/>
  <!-- Darker green valleys -->
  <rect x="0" y="26" width="64" height="4" fill="#3d8020"/>
  <rect x="0" y="30" width="64" height="4" fill="#358018"/>
  <rect x="0" y="34" width="64" height="4" fill="#2d7014"/>
  <!-- Foreground grass detail -->
  <rect x="0" y="38" width="64" height="4" fill="#3a7d1c"/>
  <rect x="0" y="42" width="64" height="6" fill="#347218"/>
  <!-- Grass texture pixels scattered -->
  <rect x="3" y="28" width="1" height="1" fill="#4a9028"/>
  <rect x="12" y="30" width="1" height="1" fill="#4a9028"/>
  <rect x="25" y="27" width="1" height="1" fill="#4a9028"/>
  <rect x="38" y="31" width="1" height="1" fill="#4a9028"/>
  <rect x="50" y="29" width="1" height="1" fill="#4a9028"/>
  <rect x="8" y="35" width="1" height="1" fill="#459025"/>
  <rect x="20" y="36" width="1" height="1" fill="#459025"/>
  <rect x="35" y="34" width="1" height="1" fill="#459025"/>
  <rect x="45" y="37" width="1" height="1" fill="#459025"/>
  <rect x="58" y="35" width="1" height="1" fill="#459025"/>
  <rect x="5" y="40" width="1" height="1" fill="#408a20"/>
  <rect x="15" y="42" width="1" height="1" fill="#408a20"/>
  <rect x="28" y="41" width="1" height="1" fill="#408a20"/>
  <rect x="42" y="43" width="1" height="1" fill="#408a20"/>
  <rect x="55" y="40" width="1" height="1" fill="#408a20"/>
  <!-- Highlight on hilltops -->
  <rect x="24" y="14" width="8" height="1" fill="#88d058"/>
  <rect x="20" y="16" width="12" height="1" fill="#82ca52"/>
  <rect x="2" y="18" width="4" height="1" fill="#68b83e"/>
  <rect x="58" y="18" width="4" height="1" fill="#68b83e"/>
</svg>
