<svg xmlns="http://www.w3.org/2000/svg" viewBox="0 0 32 32" shape-rendering="crispEdges">
  <!-- Smiley face background circle -->
  <rect x="10" y="4" width="12" height="1" fill="#ffcc00"/>
  <rect x="8" y="5" width="16" height="1" fill="#ffcc00"/>
  <rect x="7" y="6" width="18" height="1" fill="#ffcc00"/>
  <rect x="6" y="7" width="20" height="1" fill="#ffcc00"/>
  <rect x="5" y="8" width="22" height="1" fill="#ffcc00"/>
  <rect x="5" y="9" width="22" height="1" fill="#ffcc00"/>
  <rect x="4" y="10" width="24" height="1" fill="#ffcc00"/>
  <rect x="4" y="11" width="24" height="1" fill="#ffcc00"/>
  <rect x="4" y="12" width="24" height="1" fill="#ffcc00"/>
  <rect x="4" y="13" width="24" height="1" fill="#ffcc00"/>
  <rect x="4" y="14" width="24" height="1" fill="#ffcc00"/>
  <rect x="4" y="15" width="24" height="1" fill="#ffcc00"/>
  <rect x="4" y="16" width="24" height="1" fill="#ffcc00"/>
  <rect x="4" y="17" width="24" height="1" fill="#ffcc00"/>
  <rect x="5" y="18" width="22" height="1" fill="#ffcc00"/>
  <rect x="5" y="19" width="22" height="1" fill="#ffcc00"/>
  <rect x="6" y="20" width="20" height="1" fill="#ffcc00"/>
  <rect x="7" y="21" width="18" height="1" fill="#ffcc00"/>
  <rect x="8" y="22" width="16" height="1" fill="#ffcc00"/>
  <rect x="10" y="23" width="12" height="1" fill="#ffcc00"/>
  <!-- Black outline -->
  <rect x="10" y="3" width="12" height="1" fill="#000"/>
  <rect x="8" y="4" width="2" height="1" fill="#000"/>
  <rect x="22" y="4" width="2" height="1" fill="#000"/>
  <rect x="7" y="5" width="1" height="1" fill="#000"/>
  <rect x="24" y="5" width="1" height="1" fill="#000"/>
  <rect x="6" y="6" width="1" height="1" fill="#000"/>
  <rect x="25" y="6" width="1" height="1" fill="#000"/>
  <rect x="5" y="7" width="1" height="1" fill="#000"/>
  <rect x="26" y="7" width="1" height="1" fill="#000"/>
  <rect x="4" y="8" width="1" height="2" fill="#000"/>
  <rect x="27" y="8" width="1" height="2" fill="#000"/>
  <rect x="3" y="10" width="1" height="8" fill="#000"/>
  <rect x="28" y="10" width="1" height="8" fill="#000"/>
  <rect x="4" y="18" width="1" height="2" fill="#000"/>
  <rect x="27" y="18" width="1" height="2" fill="#000"/>
  <rect x="5" y="20" width="1" height="1" fill="#000"/>
  <rect x="26" y="20" width="1" height="1" fill="#000"/>
  <rect x="6" y="21" width="1" height="1" fill="#000"/>
  <rect x="25" y="21" width="1" height="1" fill="#000"/>
  <rect x="7" y="22" width="1" height="1" fill="#000"/>
  <rect x="24" y="22" width="1" height="1" fill="#000"/>
  <rect x="8" y="23" width="2" height="1" fill="#000"/>
  <rect x="22" y="23" width="2" height="1" fill="#000"/>
  <rect x="10" y="24" width="12" height="1" fill="#000"/>
  <!-- Eyes -->
  <rect x="10" y="10" width="3" height="4" fill="#000"/>
  <rect x="19" y="10" width="3" height="4" fill="#000"/>
  <!-- Smile -->
  <rect x="10" y="17" width="1" height="1" fill="#000"/>
  <rect x="11" y="18" width="1" height="1" fill="#000"/>
  <rect x="12" y="19" width="2" height="1" fill="#000"/>
  <rect x="14" y="19" width="4" height="1" fill="#000"/>
  <rect x="18" y="19" width="2" height="1" fill="#000"/>
  <rect x="20" y="18" width="1" height="1" fill="#000"/>
  <rect x="21" y="17" width="1" height="1" fill="#000"/>
  <!-- Game controller below the face -->
  <rect x="8" y="26" width="16" height="4" fill="#808080"/>
  <rect x="8" y="26" width="16" height="1" fill="#a0a0a0"/>
  <rect x="23" y="26" width="1" height="4" fill="#404040"/>
  <rect x="8" y="29" width="16" height="1" fill="#404040"/>
  <!-- D-pad -->
  <rect x="11" y="27" width="1" height="3" fill="#000"/>
  <rect x="10" y="28" width="3" height="1" fill="#000"/>
  <!-- Buttons -->
  <rect x="19" y="27" width="1" height="1" fill="#ff0000"/>
  <rect x="21" y="27" width="1" height="1" fill="#0000ff"/>
  <rect x="20" y="28" width="1" height="1" fill="#00aa00"/>
</svg>
