<svg xmlns="http://www.w3.org/2000/svg" viewBox="0 0 16 16" shape-rendering="crispEdges">
  <!-- Power button circle -->
  <rect x="5" y="1" width="6" height="1" fill="#808080"/>
  <rect x="3" y="2" width="2" height="1" fill="#808080"/>
  <rect x="11" y="2" width="2" height="1" fill="#808080"/>
  <rect x="2" y="3" width="1" height="2" fill="#808080"/>
  <rect x="13" y="3" width="1" height="2" fill="#808080"/>
  <rect x="1" y="5" width="1" height="4" fill="#808080"/>
  <rect x="14" y="5" width="1" height="4" fill="#808080"/>
  <rect x="2" y="9" width="1" height="2" fill="#808080"/>
  <rect x="13" y="9" width="1" height="2" fill="#808080"/>
  <rect x="3" y="11" width="2" height="1" fill="#808080"/>
  <rect x="11" y="11" width="2" height="1" fill="#808080"/>
  <rect x="5" y="12" width="6" height="1" fill="#808080"/>
  <!-- Power line -->
  <rect x="7" y="1" width="2" height="6" fill="#ff0000"/>
  <!-- Inner fill -->
  <rect x="5" y="2" width="2" height="1" fill="#c0c0c0"/>
  <rect x="9" y="2" width="2" height="1" fill="#c0c0c0"/>
  <rect x="3" y="3" width="4" height="2" fill="#c0c0c0"/>
  <rect x="9" y="3" width="4" height="2" fill="#c0c0c0"/>
  <rect x="2" y="5" width="5" height="4" fill="#c0c0c0"/>
  <rect x="9" y="5" width="5" height="4" fill="#c0c0c0"/>
  <rect x="2" y="7" width="12" height="2" fill="#c0c0c0"/>
  <rect x="3" y="9" width="10" height="2" fill="#c0c0c0"/>
  <rect x="5" y="11" width="6" height="1" fill="#c0c0c0"/>
</svg>
